<svg width="40" height="41" viewBox="0 0 40 41" fill="none" xmlns="http://www.w3.org/2000/svg">
<rect y="0.701416" width="40" height="40" rx="10" fill="#FEF8EC"/>
<path d="M28 17.2014H12C10.8954 17.2014 10 17.9689 10 18.9157V27.4871C10 28.4339 10.8954 29.2014 12 29.2014H28C29.1046 29.2014 30 28.4339 30 27.4871V18.9157C30 17.9689 29.1046 17.2014 28 17.2014Z" stroke="#F8B135" stroke-linecap="round" stroke-linejoin="round"/>
<path d="M24.5 28.7014V14.0347C24.5 13.5485 24.2629 13.0822 23.841 12.7384C23.419 12.3946 22.8467 12.2014 22.25 12.2014H17.75C17.1533 12.2014 16.581 12.3946 16.159 12.7384C15.7371 13.0822 15.5 13.5485 15.5 14.0347V28.7014" stroke="#F8B135" stroke-linecap="round" stroke-linejoin="round"/>
</svg>
