<svg width="40" height="40" viewBox="0 0 40 40" fill="none" xmlns="http://www.w3.org/2000/svg">
<rect width="40" height="40" rx="20" fill="#FEE9E8"/>
<path d="M27.048 15.4518C26.6408 15.0444 26.1572 14.7212 25.6251 14.5007C25.0929 14.2802 24.5225 14.1667 23.9464 14.1667C23.3703 14.1667 22.7999 14.2802 22.2677 14.5007C21.7356 14.7212 21.252 15.0444 20.8448 15.4518L19.9996 16.297L19.1545 15.4518C18.3319 14.6292 17.2162 14.1671 16.0528 14.1671C14.8895 14.1671 13.7738 14.6292 12.9512 15.4518C12.1286 16.2744 11.6665 17.3901 11.6665 18.5534C11.6665 19.7168 12.1286 20.8324 12.9512 21.655L13.7964 22.5002L19.9996 28.7034L26.2028 22.5002L27.048 21.655C27.4554 21.2478 27.7786 20.7643 27.9992 20.2321C28.2197 19.6999 28.3332 19.1295 28.3332 18.5534C28.3332 17.9774 28.2197 17.4069 27.9992 16.8748C27.7786 16.3426 27.4554 15.8591 27.048 15.4518V15.4518Z" fill="#FA6767" stroke="#FA6767" stroke-linecap="round" stroke-linejoin="round"/>
</svg>
