<svg width="24" height="24" viewBox="0 0 24 24" fill="none" xmlns="http://www.w3.org/2000/svg">
<rect width="24" height="24" rx="12" fill="#FEE9E8"/>
<path d="M16.2289 9.27109C15.9846 9.02663 15.6944 8.83271 15.3751 8.70041C15.0558 8.5681 14.7136 8.5 14.3679 8.5C14.0223 8.5 13.6801 8.5681 13.3607 8.70041C13.0414 8.83271 12.7513 9.02663 12.507 9.27109L11.9999 9.7782L11.4928 9.27109C10.9992 8.77753 10.3298 8.50026 9.6318 8.50026C8.93381 8.50026 8.2644 8.77753 7.77084 9.27109C7.27728 9.76465 7 10.4341 7 11.1321C7 11.8301 7.27728 12.4995 7.77084 12.993L8.27794 13.5001L11.9999 17.2221L15.7218 13.5001L16.2289 12.993C16.4734 12.7487 16.6673 12.4586 16.7996 12.1393C16.9319 11.8199 17 11.4777 17 11.1321C17 10.7864 16.9319 10.4442 16.7996 10.1249C16.6673 9.80555 16.4734 9.51544 16.2289 9.27109V9.27109Z" stroke="#FA6767" stroke-linecap="round" stroke-linejoin="round"/>
</svg>
