<svg width="40" height="40" viewBox="0 0 40 40" fill="none" xmlns="http://www.w3.org/2000/svg">
<rect width="40" height="40" rx="10" fill="#EEFAF8"/>
<mask id="path-2-inside-1_17_69" fill="white">
<path d="M10 15C10 12.7909 11.7909 11 14 11H26C28.2091 11 30 12.7909 30 15V25C30 27.2091 28.2091 29 26 29H14C11.7909 29 10 27.2091 10 25V15Z"/>
</mask>
<path d="M9 15C9 12.2386 11.2386 10 14 10H25C27.7614 10 30 12.2386 30 15C30 13.3431 28.2091 12 26 12H14C12.3431 12 11 13.3431 11 15H9ZM30 25C30 27.7614 27.7614 30 25 30H14C11.2386 30 9 27.7614 9 25H11C11 26.6569 12.3431 28 14 28H26C28.2091 28 30 26.6569 30 25ZM14 30C11.2386 30 9 27.7614 9 25V15C9 12.2386 11.2386 10 14 10V12C12.3431 12 11 13.3431 11 15V25C11 26.6569 12.3431 28 14 28V30ZM30 11V29V11Z" fill="#4ACDBD" mask="url(#path-2-inside-1_17_69)"/>
<mask id="path-4-outside-2_17_69" maskUnits="userSpaceOnUse" x="22" y="16" width="7" height="8" fill="black">
<rect fill="white" x="22" y="16" width="7" height="8"/>
<path d="M23 20C23 18.3431 24.3431 17 26 17H29V23H26C24.3431 23 23 21.6569 23 20Z"/>
</mask>
<path d="M22 20C22 17.7909 23.7909 16 26 16H29V18H26C24.8954 18 24 18.8954 24 20H22ZM29 24H26C23.7909 24 22 22.2091 22 20H24C24 21.1046 24.8954 22 26 22H29V24ZM26 24C23.7909 24 22 22.2091 22 20C22 17.7909 23.7909 16 26 16V18C24.8954 18 24 18.8954 24 20C24 21.1046 24.8954 22 26 22V24ZM29 17V23V17Z" fill="#4ACDBD" mask="url(#path-4-outside-2_17_69)"/>
<mask id="path-6-inside-3_17_69" fill="white">
<path d="M24 20C24 18.8954 24.8954 18 26 18H30V22H26C24.8954 22 24 21.1046 24 20Z"/>
</mask>
<path d="M23 20C23 18.3431 24.3431 17 26 17H30V19H26C25.4477 19 25 19.4477 25 20H23ZM30 23H26C24.3431 23 23 21.6569 23 20H25C25 20.5523 25.4477 21 26 21H30V23ZM26 23C24.3431 23 23 21.6569 23 20C23 18.3431 24.3431 17 26 17V19C25.4477 19 25 19.4477 25 20C25 20.5523 25.4477 21 26 21V23ZM30 18V22V18Z" fill="#4ACDBD" mask="url(#path-6-inside-3_17_69)"/>
<path d="M14 16L21 16" stroke="#4ACDBD"/>
</svg>
